<?xml version="1.0" encoding="utf-8" standalone="no"?>
<!DOCTYPE svg PUBLIC "-//W3C//DTD SVG 1.1//EN"
  "http://www.w3.org/Graphics/SVG/1.1/DTD/svg11.dtd">
<svg xmlns:xlink="http://www.w3.org/1999/xlink" width="460.8pt" height="345.6pt" viewBox="0 0 460.8 345.6" xmlns="http://www.w3.org/2000/svg" version="1.1">
 <metadata>
  <rdf:RDF xmlns:dc="http://purl.org/dc/elements/1.1/" xmlns:cc="http://creativecommons.org/ns#" xmlns:rdf="http://www.w3.org/1999/02/22-rdf-syntax-ns#">
   <cc:Work>
    <dc:type rdf:resource="http://purl.org/dc/dcmitype/StillImage"/>
    <dc:date>2024-09-11T15:27:04.183000</dc:date>
    <dc:format>image/svg+xml</dc:format>
    <dc:creator>
     <cc:Agent>
      <dc:title>Matplotlib v3.5.2, https://matplotlib.org/</dc:title>
     </cc:Agent>
    </dc:creator>
   </cc:Work>
  </rdf:RDF>
 </metadata>
 <defs>
  <style type="text/css">*{stroke-linejoin: round; stroke-linecap: butt}</style>
 </defs>
 <g id="figure_1">
  <g id="patch_1">
   <path d="M 0 345.6 
L 460.8 345.6 
L 460.8 0 
L 0 0 
z
" style="fill: #ffffff"/>
  </g>
  <g id="axes_1">
   <g id="patch_2">
    <path d="M 57.6 307.584 
L 414.72 307.584 
L 414.72 41.472 
L 57.6 41.472 
z
" style="fill: #ffffff"/>
   </g>
   <g id="patch_3">
    <path d="M 260.061944 201.338378 
Q 273.894852 233.104082 302.665106 250.321922 
" clip-path="url(#p3074197002)" style="fill: none; stroke: #000000; stroke-linecap: round"/>
    <path d="M 300.259852 246.551676 
L 302.665106 250.321922 
L 298.205757 249.983978 
L 300.259852 246.551676 
z
" clip-path="url(#p3074197002)" style="stroke: #000000; stroke-linecap: round"/>
   </g>
   <g id="patch_4">
    <path d="M 252.648017 200.833002 
Q 238.090254 229.241256 242.317098 259.753146 
" clip-path="url(#p3074197002)" style="fill: none; stroke: #000000; stroke-linecap: round"/>
    <path d="M 243.749296 255.516543 
L 242.317098 259.753146 
L 239.787134 256.065426 
L 243.749296 255.516543 
z
" clip-path="url(#p3074197002)" style="stroke: #000000; stroke-linecap: round"/>
   </g>
   <g id="patch_5">
    <path d="M 302.621851 253.962202 
Q 275.333094 251.602682 252.34906 264.330232 
" clip-path="url(#p3074197002)" style="fill: none; stroke: #000000; stroke-linecap: round"/>
    <path d="M 256.817238 264.142123 
L 252.34906 264.330232 
L 254.87948 260.642824 
L 256.817238 264.142123 
z
" clip-path="url(#p3074197002)" style="stroke: #000000; stroke-linecap: round"/>
   </g>
   <g id="patch_6">
    <path d="M 308.036136 247.019041 
Q 294.203228 215.253337 265.432974 198.035497 
" clip-path="url(#p3074197002)" style="fill: none; stroke: #000000; stroke-linecap: round"/>
    <path d="M 267.838229 201.805743 
L 265.432974 198.035497 
L 269.892323 198.373441 
L 267.838229 201.805743 
z
" clip-path="url(#p3074197002)" style="stroke: #000000; stroke-linecap: round"/>
   </g>
   <g id="patch_7">
    <path d="M 252.571645 270.502419 
Q 279.860402 272.861939 302.844437 260.134389 
" clip-path="url(#p3074197002)" style="fill: none; stroke: #000000; stroke-linecap: round"/>
    <path d="M 298.376258 260.322498 
L 302.844437 260.134389 
L 300.314017 263.821797 
L 298.376258 260.322498 
z
" clip-path="url(#p3074197002)" style="stroke: #000000; stroke-linecap: round"/>
   </g>
   <g id="patch_8">
    <path d="M 248.223287 261.833948 
Q 262.78105 233.425693 258.554206 202.913803 
" clip-path="url(#p3074197002)" style="fill: none; stroke: #000000; stroke-linecap: round"/>
    <path d="M 257.122008 207.150406 
L 258.554206 202.913803 
L 261.08417 206.601524 
L 257.122008 207.150406 
z
" clip-path="url(#p3074197002)" style="stroke: #000000; stroke-linecap: round"/>
   </g>
   <g id="matplotlib.axis_1">
    <g id="xtick_1"/>
    <g id="xtick_2"/>
    <g id="xtick_3"/>
    <g id="xtick_4"/>
    <g id="xtick_5"/>
    <g id="xtick_6"/>
    <g id="xtick_7"/>
    <g id="xtick_8"/>
   </g>
   <g id="matplotlib.axis_2">
    <g id="ytick_1"/>
    <g id="ytick_2"/>
    <g id="ytick_3"/>
    <g id="ytick_4"/>
    <g id="ytick_5"/>
    <g id="ytick_6"/>
    <g id="ytick_7"/>
    <g id="ytick_8"/>
   </g>
   <g id="PathCollection_1">
    <defs>
     <path id="m8b094c5aeb" d="M 0 8.660254 
C 2.296726 8.660254 4.499694 7.747755 6.123724 6.123724 
C 7.747755 4.499694 8.660254 2.296726 8.660254 0 
C 8.660254 -2.296726 7.747755 -4.499694 6.123724 -6.123724 
C 4.499694 -7.747755 2.296726 -8.660254 0 -8.660254 
C -2.296726 -8.660254 -4.499694 -7.747755 -6.123724 -6.123724 
C -7.747755 -4.499694 -8.660254 -2.296726 -8.660254 0 
C -8.660254 2.296726 -7.747755 4.499694 -6.123724 6.123724 
C -4.499694 7.747755 -2.296726 8.660254 0 8.660254 
z
" style="stroke: #ffff00"/>
    </defs>
    <g clip-path="url(#p3074197002)">
     <use xlink:href="#m8b094c5aeb" x="256.887944" y="193.279874" style="fill: #ffff00; stroke: #ffff00"/>
     <use xlink:href="#m8b094c5aeb" x="311.210136" y="255.077545" style="fill: #ffff00; stroke: #ffff00"/>
     <use xlink:href="#m8b094c5aeb" x="255.637515" y="162.272645" style="fill: #ffff00; stroke: #ffff00"/>
     <use xlink:href="#m8b094c5aeb" x="243.98336" y="269.387075" style="fill: #ffff00; stroke: #ffff00"/>
     <use xlink:href="#m8b094c5aeb" x="398.487273" y="295.488" style="fill: #ffff00; stroke: #ffff00"/>
     <use xlink:href="#m8b094c5aeb" x="115.604598" y="53.568" style="fill: #ffff00; stroke: #ffff00"/>
     <use xlink:href="#m8b094c5aeb" x="214.953643" y="277.532961" style="fill: #ffff00; stroke: #ffff00"/>
     <use xlink:href="#m8b094c5aeb" x="73.832727" y="282.665219" style="fill: #ffff00; stroke: #ffff00"/>
     <use xlink:href="#m8b094c5aeb" x="337.310745" y="267.122451" style="fill: #ffff00; stroke: #ffff00"/>
    </g>
   </g>
   <g id="patch_9">
    <path d="M 57.6 307.584 
L 57.6 41.472 
" style="fill: none; stroke: #000000; stroke-width: 0.8; stroke-linejoin: miter; stroke-linecap: square"/>
   </g>
   <g id="patch_10">
    <path d="M 414.72 307.584 
L 414.72 41.472 
" style="fill: none; stroke: #000000; stroke-width: 0.8; stroke-linejoin: miter; stroke-linecap: square"/>
   </g>
   <g id="patch_11">
    <path d="M 57.6 307.584 
L 414.72 307.584 
" style="fill: none; stroke: #000000; stroke-width: 0.8; stroke-linejoin: miter; stroke-linecap: square"/>
   </g>
   <g id="patch_12">
    <path d="M 57.6 41.472 
L 414.72 41.472 
" style="fill: none; stroke: #000000; stroke-width: 0.8; stroke-linejoin: miter; stroke-linecap: square"/>
   </g>
   <g id="text_1">
    <g clip-path="url(#p3074197002)">
     <!-- фрезерування -->
     <g transform="translate(218.937163 196.039249)scale(0.1 -0.1)">
      <defs>
       <path id="DejaVuSans-444" d="M 947 1747 
Q 947 1013 1173 702 
Q 1400 391 1784 391 
Q 2091 391 2447 916 
L 2447 2578 
Q 2091 3103 1784 3103 
Q 1400 3103 1173 2792 
Q 947 2481 947 1747 
z
M 2447 -1331 
L 2447 447 
Q 2269 153 2064 31 
Q 1859 -91 1600 -91 
Q 1078 -91 714 392 
Q 350 875 350 1734 
Q 350 2594 714 3089 
Q 1078 3584 1600 3584 
Q 1859 3584 2064 3465 
Q 2269 3347 2447 3053 
L 2447 4666 
L 3025 4666 
L 3025 3053 
Q 3203 3347 3408 3465 
Q 3613 3584 3872 3584 
Q 4394 3584 4758 3089 
Q 5122 2594 5122 1734 
Q 5122 875 4758 392 
Q 4394 -91 3872 -91 
Q 3613 -91 3408 31 
Q 3203 153 3025 447 
L 3025 -1331 
L 2447 -1331 
z
M 4525 1747 
Q 4525 2481 4298 2792 
Q 4072 3103 3688 3103 
Q 3381 3103 3025 2578 
L 3025 916 
Q 3381 391 3688 391 
Q 4072 391 4298 702 
Q 4525 1013 4525 1747 
z
" transform="scale(0.015625)"/>
       <path id="DejaVuSans-440" d="M 1159 525 
L 1159 -1331 
L 581 -1331 
L 581 3500 
L 1159 3500 
L 1159 2969 
Q 1341 3281 1617 3432 
Q 1894 3584 2278 3584 
Q 2916 3584 3314 3078 
Q 3713 2572 3713 1747 
Q 3713 922 3314 415 
Q 2916 -91 2278 -91 
Q 1894 -91 1617 61 
Q 1341 213 1159 525 
z
M 3116 1747 
Q 3116 2381 2855 2742 
Q 2594 3103 2138 3103 
Q 1681 3103 1420 2742 
Q 1159 2381 1159 1747 
Q 1159 1113 1420 752 
Q 1681 391 2138 391 
Q 2594 391 2855 752 
Q 3116 1113 3116 1747 
z
" transform="scale(0.015625)"/>
       <path id="DejaVuSans-435" d="M 3597 1894 
L 3597 1613 
L 953 1613 
Q 991 1019 1311 708 
Q 1631 397 2203 397 
Q 2534 397 2845 478 
Q 3156 559 3463 722 
L 3463 178 
Q 3153 47 2828 -22 
Q 2503 -91 2169 -91 
Q 1331 -91 842 396 
Q 353 884 353 1716 
Q 353 2575 817 3079 
Q 1281 3584 2069 3584 
Q 2775 3584 3186 3129 
Q 3597 2675 3597 1894 
z
M 3022 2063 
Q 3016 2534 2758 2815 
Q 2500 3097 2075 3097 
Q 1594 3097 1305 2825 
Q 1016 2553 972 2059 
L 3022 2063 
z
" transform="scale(0.015625)"/>
       <path id="DejaVuSans-437" d="M 2206 1888 
Q 2594 1813 2809 1584 
Q 3025 1356 3025 1019 
Q 3025 478 2622 193 
Q 2219 -91 1475 -91 
Q 1225 -91 961 -47 
Q 697 -3 416 84 
L 416 619 
Q 638 503 903 445 
Q 1169 388 1459 388 
Q 1931 388 2195 563 
Q 2459 738 2459 1019 
Q 2459 1294 2225 1461 
Q 1991 1628 1563 1628 
L 1100 1628 
L 1100 2103 
L 1584 2103 
Q 1947 2103 2158 2242 
Q 2369 2381 2369 2600 
Q 2369 2800 2151 2944 
Q 1934 3088 1563 3088 
Q 1341 3088 1089 3047 
Q 838 3006 534 2916 
L 534 3438 
Q 841 3513 1106 3550 
Q 1372 3588 1609 3588 
Q 2222 3588 2576 3342 
Q 2931 3097 2931 2656 
Q 2931 2366 2743 2164 
Q 2556 1963 2206 1888 
z
" transform="scale(0.015625)"/>
       <path id="DejaVuSans-443" d="M 2059 -325 
Q 1816 -950 1584 -1140 
Q 1353 -1331 966 -1331 
L 506 -1331 
L 506 -850 
L 844 -850 
Q 1081 -850 1212 -737 
Q 1344 -625 1503 -206 
L 1606 56 
L 191 3500 
L 800 3500 
L 1894 763 
L 2988 3500 
L 3597 3500 
L 2059 -325 
z
" transform="scale(0.015625)"/>
       <path id="DejaVuSans-432" d="M 1156 1613 
L 1156 459 
L 1975 459 
Q 2369 459 2575 607 
Q 2781 756 2781 1038 
Q 2781 1319 2575 1466 
Q 2369 1613 1975 1613 
L 1156 1613 
z
M 1156 3041 
L 1156 2072 
L 1913 2072 
Q 2238 2072 2444 2201 
Q 2650 2331 2650 2563 
Q 2650 2794 2444 2917 
Q 2238 3041 1913 3041 
L 1156 3041 
z
M 581 3500 
L 1950 3500 
Q 2566 3500 2897 3275 
Q 3228 3050 3228 2634 
Q 3228 2313 3059 2123 
Q 2891 1934 2559 1888 
Q 2956 1813 3175 1575 
Q 3394 1338 3394 981 
Q 3394 513 3033 256 
Q 2672 0 2003 0 
L 581 0 
L 581 3500 
z
" transform="scale(0.015625)"/>
       <path id="DejaVuSans-430" d="M 2194 1759 
Q 1497 1759 1228 1600 
Q 959 1441 959 1056 
Q 959 750 1161 570 
Q 1363 391 1709 391 
Q 2188 391 2477 730 
Q 2766 1069 2766 1631 
L 2766 1759 
L 2194 1759 
z
M 3341 1997 
L 3341 0 
L 2766 0 
L 2766 531 
Q 2569 213 2275 61 
Q 1981 -91 1556 -91 
Q 1019 -91 701 211 
Q 384 513 384 1019 
Q 384 1609 779 1909 
Q 1175 2209 1959 2209 
L 2766 2209 
L 2766 2266 
Q 2766 2663 2505 2880 
Q 2244 3097 1772 3097 
Q 1472 3097 1187 3025 
Q 903 2953 641 2809 
L 641 3341 
Q 956 3463 1253 3523 
Q 1550 3584 1831 3584 
Q 2591 3584 2966 3190 
Q 3341 2797 3341 1997 
z
" transform="scale(0.015625)"/>
       <path id="DejaVuSans-43d" d="M 581 3500 
L 1159 3500 
L 1159 2072 
L 3025 2072 
L 3025 3500 
L 3603 3500 
L 3603 0 
L 3025 0 
L 3025 1613 
L 1159 1613 
L 1159 0 
L 581 0 
L 581 3500 
z
" transform="scale(0.015625)"/>
       <path id="DejaVuSans-44f" d="M 1181 2491 
Q 1181 2231 1381 2084 
Q 1581 1938 1953 1938 
L 2728 1938 
L 2728 3041 
L 1953 3041 
Q 1581 3041 1381 2897 
Q 1181 2753 1181 2491 
z
M 363 0 
L 1431 1534 
Q 1069 1616 828 1830 
Q 588 2044 588 2491 
Q 588 2997 923 3248 
Q 1259 3500 1938 3500 
L 3306 3500 
L 3306 0 
L 2728 0 
L 2728 1478 
L 2013 1478 
L 981 0 
L 363 0 
z
" transform="scale(0.015625)"/>
      </defs>
      <use xlink:href="#DejaVuSans-444"/>
      <use xlink:href="#DejaVuSans-440" x="85.498047"/>
      <use xlink:href="#DejaVuSans-435" x="148.974609"/>
      <use xlink:href="#DejaVuSans-437" x="210.498047"/>
      <use xlink:href="#DejaVuSans-435" x="263.671875"/>
      <use xlink:href="#DejaVuSans-440" x="325.195312"/>
      <use xlink:href="#DejaVuSans-443" x="388.671875"/>
      <use xlink:href="#DejaVuSans-432" x="447.851562"/>
      <use xlink:href="#DejaVuSans-430" x="506.787109"/>
      <use xlink:href="#DejaVuSans-43d" x="568.066406"/>
      <use xlink:href="#DejaVuSans-43d" x="633.447266"/>
      <use xlink:href="#DejaVuSans-44f" x="698.828125"/>
     </g>
    </g>
   </g>
   <g id="text_2">
    <g clip-path="url(#p3074197002)">
     <!-- точіння -->
     <g transform="translate(291.34998 257.83692)scale(0.1 -0.1)">
      <defs>
       <path id="DejaVuSans-442" d="M 188 3500 
L 3541 3500 
L 3541 3041 
L 2147 3041 
L 2147 0 
L 1581 0 
L 1581 3041 
L 188 3041 
L 188 3500 
z
" transform="scale(0.015625)"/>
       <path id="DejaVuSans-43e" d="M 1959 3097 
Q 1497 3097 1228 2736 
Q 959 2375 959 1747 
Q 959 1119 1226 758 
Q 1494 397 1959 397 
Q 2419 397 2687 759 
Q 2956 1122 2956 1747 
Q 2956 2369 2687 2733 
Q 2419 3097 1959 3097 
z
M 1959 3584 
Q 2709 3584 3137 3096 
Q 3566 2609 3566 1747 
Q 3566 888 3137 398 
Q 2709 -91 1959 -91 
Q 1206 -91 779 398 
Q 353 888 353 1747 
Q 353 2609 779 3096 
Q 1206 3584 1959 3584 
z
" transform="scale(0.015625)"/>
       <path id="DejaVuSans-447" d="M 2625 0 
L 2625 1472 
L 1553 1472 
Q 1075 1472 756 1769 
Q 469 2038 469 2613 
L 469 3500 
L 1044 3500 
L 1044 2666 
Q 1044 2300 1206 2116 
Q 1372 1931 1697 1931 
L 2625 1931 
L 2625 3500 
L 3200 3500 
L 3200 0 
L 2625 0 
z
" transform="scale(0.015625)"/>
       <path id="DejaVuSans-456" d="M 603 3500 
L 1178 3500 
L 1178 0 
L 603 0 
L 603 3500 
z
M 603 4863 
L 1178 4863 
L 1178 4134 
L 603 4134 
L 603 4863 
z
" transform="scale(0.015625)"/>
      </defs>
      <use xlink:href="#DejaVuSans-442"/>
      <use xlink:href="#DejaVuSans-43e" x="58.251953"/>
      <use xlink:href="#DejaVuSans-447" x="119.433594"/>
      <use xlink:href="#DejaVuSans-456" x="178.515625"/>
      <use xlink:href="#DejaVuSans-43d" x="206.298828"/>
      <use xlink:href="#DejaVuSans-43d" x="271.679688"/>
      <use xlink:href="#DejaVuSans-44f" x="337.060547"/>
     </g>
    </g>
   </g>
   <g id="text_3">
    <g clip-path="url(#p3074197002)">
     <!-- спеціальний інструмент -->
     <g transform="translate(191.704703 165.03202)scale(0.1 -0.1)">
      <defs>
       <path id="DejaVuSans-441" d="M 3122 3366 
L 3122 2828 
Q 2878 2963 2633 3030 
Q 2388 3097 2138 3097 
Q 1578 3097 1268 2742 
Q 959 2388 959 1747 
Q 959 1106 1268 751 
Q 1578 397 2138 397 
Q 2388 397 2633 464 
Q 2878 531 3122 666 
L 3122 134 
Q 2881 22 2623 -34 
Q 2366 -91 2075 -91 
Q 1284 -91 818 406 
Q 353 903 353 1747 
Q 353 2603 823 3093 
Q 1294 3584 2113 3584 
Q 2378 3584 2631 3529 
Q 2884 3475 3122 3366 
z
" transform="scale(0.015625)"/>
       <path id="DejaVuSans-43f" d="M 3603 3500 
L 3603 0 
L 3025 0 
L 3025 3041 
L 1159 3041 
L 1159 0 
L 581 0 
L 581 3500 
L 3603 3500 
z
" transform="scale(0.015625)"/>
       <path id="DejaVuSans-446" d="M 3603 0 
L 581 0 
L 581 3500 
L 1159 3500 
L 1159 459 
L 3025 459 
L 3025 3500 
L 3603 3500 
L 3603 459 
L 4063 459 
L 4063 -884 
L 3603 -884 
L 3603 0 
z
" transform="scale(0.015625)"/>
       <path id="DejaVuSans-43b" d="M 238 0 
L 238 478 
Q 806 566 981 959 
Q 1194 1513 1194 2928 
L 1194 3500 
L 3559 3500 
L 3559 0 
L 2984 0 
L 2984 3041 
L 1769 3041 
L 1769 2694 
Q 1769 1344 1494 738 
Q 1200 91 238 0 
z
" transform="scale(0.015625)"/>
       <path id="DejaVuSans-44c" d="M 2781 1038 
Q 2781 1319 2576 1466 
Q 2372 1613 1978 1613 
L 1159 1613 
L 1159 459 
L 1978 459 
Q 2372 459 2576 607 
Q 2781 756 2781 1038 
z
M 581 3500 
L 1159 3500 
L 1159 2072 
L 2003 2072 
Q 2672 2072 3033 1817 
Q 3394 1563 3394 1038 
Q 3394 513 3033 256 
Q 2672 0 2003 0 
L 581 0 
L 581 3500 
z
" transform="scale(0.015625)"/>
       <path id="DejaVuSans-438" d="M 3578 3500 
L 3578 0 
L 3006 0 
L 3006 2809 
L 1319 0 
L 581 0 
L 581 3500 
L 1153 3500 
L 1153 697 
L 2838 3500 
L 3578 3500 
z
" transform="scale(0.015625)"/>
       <path id="DejaVuSans-439" d="M 3578 3500 
L 3578 0 
L 3006 0 
L 3006 2809 
L 1319 0 
L 581 0 
L 581 3500 
L 1153 3500 
L 1153 697 
L 2838 3500 
L 3578 3500 
z
M 1102 4833 
L 1471 4833 
Q 1505 4599 1656 4481 
Q 1808 4364 2080 4364 
Q 2349 4364 2499 4480 
Q 2649 4596 2689 4833 
L 3058 4833 
Q 3027 4386 2780 4161 
Q 2533 3936 2080 3936 
Q 1627 3936 1380 4161 
Q 1133 4386 1102 4833 
z
" transform="scale(0.015625)"/>
       <path id="DejaVuSans-20" transform="scale(0.015625)"/>
       <path id="DejaVuSans-43c" d="M 581 3500 
L 1422 3500 
L 2416 1156 
L 3413 3500 
L 4247 3500 
L 4247 0 
L 3669 0 
L 3669 2950 
L 2703 672 
L 2128 672 
L 1159 2950 
L 1159 0 
L 581 0 
L 581 3500 
z
" transform="scale(0.015625)"/>
      </defs>
      <use xlink:href="#DejaVuSans-441"/>
      <use xlink:href="#DejaVuSans-43f" x="54.980469"/>
      <use xlink:href="#DejaVuSans-435" x="120.361328"/>
      <use xlink:href="#DejaVuSans-446" x="181.884766"/>
      <use xlink:href="#DejaVuSans-456" x="249.951172"/>
      <use xlink:href="#DejaVuSans-430" x="277.734375"/>
      <use xlink:href="#DejaVuSans-43b" x="339.013672"/>
      <use xlink:href="#DejaVuSans-44c" x="402.929688"/>
      <use xlink:href="#DejaVuSans-43d" x="461.865234"/>
      <use xlink:href="#DejaVuSans-438" x="527.246094"/>
      <use xlink:href="#DejaVuSans-439" x="592.236328"/>
      <use xlink:href="#DejaVuSans-20" x="657.226562"/>
      <use xlink:href="#DejaVuSans-456" x="689.013672"/>
      <use xlink:href="#DejaVuSans-43d" x="716.796875"/>
      <use xlink:href="#DejaVuSans-441" x="782.177734"/>
      <use xlink:href="#DejaVuSans-442" x="837.158203"/>
      <use xlink:href="#DejaVuSans-440" x="895.410156"/>
      <use xlink:href="#DejaVuSans-443" x="958.886719"/>
      <use xlink:href="#DejaVuSans-43c" x="1018.066406"/>
      <use xlink:href="#DejaVuSans-435" x="1093.505859"/>
      <use xlink:href="#DejaVuSans-43d" x="1155.029297"/>
      <use xlink:href="#DejaVuSans-442" x="1220.410156"/>
     </g>
    </g>
   </g>
   <g id="text_4">
    <g clip-path="url(#p3074197002)">
     <!-- свердління -->
     <g transform="translate(214.448985 272.14645)scale(0.1 -0.1)">
      <defs>
       <path id="DejaVuSans-434" d="M 1384 459 
L 3053 459 
L 3053 3041 
L 1844 3041 
L 1844 2603 
Q 1844 1316 1475 628 
L 1384 459 
z
M 550 459 
Q 834 584 959 850 
Q 1266 1509 1266 2838 
L 1266 3500 
L 3631 3500 
L 3631 459 
L 4091 459 
L 4091 -884 
L 3631 -884 
L 3631 0 
L 794 0 
L 794 -884 
L 334 -884 
L 334 459 
L 550 459 
z
" transform="scale(0.015625)"/>
      </defs>
      <use xlink:href="#DejaVuSans-441"/>
      <use xlink:href="#DejaVuSans-432" x="54.980469"/>
      <use xlink:href="#DejaVuSans-435" x="113.916016"/>
      <use xlink:href="#DejaVuSans-440" x="175.439453"/>
      <use xlink:href="#DejaVuSans-434" x="238.916016"/>
      <use xlink:href="#DejaVuSans-43b" x="308.056641"/>
      <use xlink:href="#DejaVuSans-456" x="371.972656"/>
      <use xlink:href="#DejaVuSans-43d" x="399.755859"/>
      <use xlink:href="#DejaVuSans-43d" x="465.136719"/>
      <use xlink:href="#DejaVuSans-44f" x="530.517578"/>
     </g>
    </g>
   </g>
   <g id="text_5">
    <g clip-path="url(#p3074197002)">
     <!-- швидкість обробки -->
     <g transform="translate(347.922429 298.332531)scale(0.1 -0.1)">
      <defs>
       <path id="DejaVuSans-448" d="M 3216 459 
L 4697 459 
L 4697 3500 
L 5275 3500 
L 5275 0 
L 581 0 
L 581 3500 
L 1159 3500 
L 1159 459 
L 2638 459 
L 2638 3500 
L 3216 3500 
L 3216 459 
z
" transform="scale(0.015625)"/>
       <path id="DejaVuSans-43a" d="M 581 3500 
L 1153 3500 
L 1153 1856 
L 2775 3500 
L 3481 3500 
L 2144 2147 
L 3653 0 
L 3009 0 
L 1769 1766 
L 1153 1141 
L 1153 0 
L 581 0 
L 581 3500 
z
" transform="scale(0.015625)"/>
       <path id="DejaVuSans-431" d="M 1991 3584 
Q 2741 3584 3169 3096 
Q 3597 2609 3597 1747 
Q 3597 888 3169 398 
Q 2741 -91 1991 -91 
Q 1238 -91 822 384 
Q 406 859 384 1747 
L 366 2463 
Q 350 2834 350 2963 
Q 350 3463 531 3831 
Q 816 4409 1308 4659 
Q 1800 4909 2625 4916 
Q 3006 4919 3175 4972 
L 3334 4516 
Q 3181 4453 3041 4450 
L 2259 4397 
Q 1866 4369 1628 4231 
Q 1006 3866 947 3388 
L 925 3213 
Q 1331 3584 1991 3584 
z
M 1991 3097 
Q 1528 3097 1259 2736 
Q 991 2375 991 1747 
Q 991 1119 1258 758 
Q 1525 397 1991 397 
Q 2450 397 2719 759 
Q 2988 1122 2988 1747 
Q 2988 2369 2719 2733 
Q 2450 3097 1991 3097 
z
" transform="scale(0.015625)"/>
      </defs>
      <use xlink:href="#DejaVuSans-448"/>
      <use xlink:href="#DejaVuSans-432" x="91.503906"/>
      <use xlink:href="#DejaVuSans-438" x="150.439453"/>
      <use xlink:href="#DejaVuSans-434" x="215.429688"/>
      <use xlink:href="#DejaVuSans-43a" x="284.570312"/>
      <use xlink:href="#DejaVuSans-456" x="344.970703"/>
      <use xlink:href="#DejaVuSans-441" x="372.753906"/>
      <use xlink:href="#DejaVuSans-442" x="427.734375"/>
      <use xlink:href="#DejaVuSans-44c" x="485.986328"/>
      <use xlink:href="#DejaVuSans-20" x="544.921875"/>
      <use xlink:href="#DejaVuSans-43e" x="576.708984"/>
      <use xlink:href="#DejaVuSans-431" x="637.890625"/>
      <use xlink:href="#DejaVuSans-440" x="699.560547"/>
      <use xlink:href="#DejaVuSans-43e" x="763.037109"/>
      <use xlink:href="#DejaVuSans-431" x="824.21875"/>
      <use xlink:href="#DejaVuSans-43a" x="885.888672"/>
      <use xlink:href="#DejaVuSans-438" x="946.289062"/>
     </g>
    </g>
   </g>
   <g id="text_6">
    <g clip-path="url(#p3074197002)">
     <!-- висока точність -->
     <g transform="translate(73.734286 56.327375)scale(0.1 -0.1)">
      <use xlink:href="#DejaVuSans-432"/>
      <use xlink:href="#DejaVuSans-438" x="58.935547"/>
      <use xlink:href="#DejaVuSans-441" x="123.925781"/>
      <use xlink:href="#DejaVuSans-43e" x="178.90625"/>
      <use xlink:href="#DejaVuSans-43a" x="240.087891"/>
      <use xlink:href="#DejaVuSans-430" x="300.488281"/>
      <use xlink:href="#DejaVuSans-20" x="361.767578"/>
      <use xlink:href="#DejaVuSans-442" x="393.554688"/>
      <use xlink:href="#DejaVuSans-43e" x="451.806641"/>
      <use xlink:href="#DejaVuSans-447" x="512.988281"/>
      <use xlink:href="#DejaVuSans-43d" x="572.070312"/>
      <use xlink:href="#DejaVuSans-456" x="637.451172"/>
      <use xlink:href="#DejaVuSans-441" x="665.234375"/>
      <use xlink:href="#DejaVuSans-442" x="720.214844"/>
      <use xlink:href="#DejaVuSans-44c" x="778.466797"/>
     </g>
    </g>
   </g>
   <g id="text_7">
    <g clip-path="url(#p3074197002)">
     <!-- низька точність -->
     <g transform="translate(172.964581 280.292336)scale(0.1 -0.1)">
      <use xlink:href="#DejaVuSans-43d"/>
      <use xlink:href="#DejaVuSans-438" x="65.380859"/>
      <use xlink:href="#DejaVuSans-437" x="130.371094"/>
      <use xlink:href="#DejaVuSans-44c" x="183.544922"/>
      <use xlink:href="#DejaVuSans-43a" x="242.480469"/>
      <use xlink:href="#DejaVuSans-430" x="302.880859"/>
      <use xlink:href="#DejaVuSans-20" x="364.160156"/>
      <use xlink:href="#DejaVuSans-442" x="395.947266"/>
      <use xlink:href="#DejaVuSans-43e" x="454.199219"/>
      <use xlink:href="#DejaVuSans-447" x="515.380859"/>
      <use xlink:href="#DejaVuSans-43d" x="574.462891"/>
      <use xlink:href="#DejaVuSans-456" x="639.84375"/>
      <use xlink:href="#DejaVuSans-441" x="667.626953"/>
      <use xlink:href="#DejaVuSans-442" x="722.607422"/>
      <use xlink:href="#DejaVuSans-44c" x="780.859375"/>
     </g>
    </g>
   </g>
   <g id="text_8">
    <g clip-path="url(#p3074197002)">
     <!-- універсальність -->
     <g transform="translate(31.795227 285.424594)scale(0.1 -0.1)">
      <use xlink:href="#DejaVuSans-443"/>
      <use xlink:href="#DejaVuSans-43d" x="59.179688"/>
      <use xlink:href="#DejaVuSans-456" x="124.560547"/>
      <use xlink:href="#DejaVuSans-432" x="152.34375"/>
      <use xlink:href="#DejaVuSans-435" x="211.279297"/>
      <use xlink:href="#DejaVuSans-440" x="272.802734"/>
      <use xlink:href="#DejaVuSans-441" x="336.279297"/>
      <use xlink:href="#DejaVuSans-430" x="391.259766"/>
      <use xlink:href="#DejaVuSans-43b" x="452.539062"/>
      <use xlink:href="#DejaVuSans-44c" x="516.455078"/>
      <use xlink:href="#DejaVuSans-43d" x="575.390625"/>
      <use xlink:href="#DejaVuSans-456" x="640.771484"/>
      <use xlink:href="#DejaVuSans-441" x="668.554688"/>
      <use xlink:href="#DejaVuSans-442" x="723.535156"/>
      <use xlink:href="#DejaVuSans-44c" x="781.787109"/>
     </g>
    </g>
   </g>
   <g id="text_9">
    <g clip-path="url(#p3074197002)">
     <!-- нетехнологічність -->
     <g transform="translate(289.196682 269.881826)scale(0.1 -0.1)">
      <defs>
       <path id="DejaVuSans-445" d="M 3513 3500 
L 2247 1797 
L 3578 0 
L 2900 0 
L 1881 1375 
L 863 0 
L 184 0 
L 1544 1831 
L 300 3500 
L 978 3500 
L 1906 2253 
L 2834 3500 
L 3513 3500 
z
" transform="scale(0.015625)"/>
       <path id="DejaVuSans-433" d="M 581 0 
L 581 3500 
L 3050 3500 
L 3050 3041 
L 1159 3041 
L 1159 0 
L 581 0 
z
" transform="scale(0.015625)"/>
      </defs>
      <use xlink:href="#DejaVuSans-43d"/>
      <use xlink:href="#DejaVuSans-435" x="65.380859"/>
      <use xlink:href="#DejaVuSans-442" x="126.904297"/>
      <use xlink:href="#DejaVuSans-435" x="185.15625"/>
      <use xlink:href="#DejaVuSans-445" x="246.679688"/>
      <use xlink:href="#DejaVuSans-43d" x="305.859375"/>
      <use xlink:href="#DejaVuSans-43e" x="371.240234"/>
      <use xlink:href="#DejaVuSans-43b" x="432.421875"/>
      <use xlink:href="#DejaVuSans-43e" x="496.337891"/>
      <use xlink:href="#DejaVuSans-433" x="557.519531"/>
      <use xlink:href="#DejaVuSans-456" x="610.058594"/>
      <use xlink:href="#DejaVuSans-447" x="637.841797"/>
      <use xlink:href="#DejaVuSans-43d" x="696.923828"/>
      <use xlink:href="#DejaVuSans-456" x="762.304688"/>
      <use xlink:href="#DejaVuSans-441" x="790.087891"/>
      <use xlink:href="#DejaVuSans-442" x="845.068359"/>
      <use xlink:href="#DejaVuSans-44c" x="903.320312"/>
     </g>
    </g>
   </g>
  </g>
 </g>
 <defs>
  <clipPath id="p3074197002">
   <rect x="57.6" y="41.472" width="357.12" height="266.112"/>
  </clipPath>
 </defs>
</svg>

  </clipPath>
 </defs>
</svg>
-456" x="610.058594"/>
      <use xlink:href="#DejaVuSans-447" x="637.841797"/>
      <use xlink:href="#DejaVuSans-43d" x="696.923828"/>
      <use xlink:href="#DejaVuSans-456" x="762.304688"/>
      <use xlink:href="#DejaVuSans-441" x="790.087891"/>
      <use xlink:href="#DejaVuSans-442" x="845.068359"/>
      <use xlink:href="#DejaVuSans-44c" x="903.320312"/>
     </g>
    </g>
   </g>
  </g>
 </g>
 <defs>
  <clipPath id="p1e98993c0c">
   <rect x="57.6" y="41.472" width="357.12" height="266.112"/>
  </clipPath>
 </defs>
</svg>
>
</svg>
625"/>
      <use xlink:href="#DejaVuSans-456" x="640.771484"/>
      <use xlink:href="#DejaVuSans-441" x="668.554688"/>
      <use xlink:href="#DejaVuSans-442" x="723.535156"/>
      <use xlink:href="#DejaVuSans-44c" x="781.787109"/>
     </g>
    </g>
   </g>
   <g id="text_9">
    <g clip-path="url(#p35be869fd2)">
     <!-- нетехнологічність -->
     <g transform="translate(93.255345 247.772537)scale(0.1 -0.1)">
      <defs>
       <path id="DejaVuSans-445" d="M 3513 3500 
L 2247 1797 
L 3578 0 
L 2900 0 
L 1881 1375 
L 863 0 
L 184 0 
L 1544 1831 
L 300 3500 
L 978 3500 
L 1906 2253 
L 2834 3500 
L 3513 3500 
z
" transform="scale(0.015625)"/>
       <path id="DejaVuSans-433" d="M 581 0 
L 581 3500 
L 3050 3500 
L 3050 3041 
L 1159 3041 
L 1159 0 
L 581 0 
z
" transform="scale(0.015625)"/>
      </defs>
      <use xlink:href="#DejaVuSans-43d"/>
      <use xlink:href="#DejaVuSans-435" x="65.380859"/>
      <use xlink:href="#DejaVuSans-442" x="126.904297"/>
      <use xlink:href="#DejaVuSans-435" x="185.15625"/>
      <use xlink:href="#DejaVuSans-445" x="246.679688"/>
      <use xlink:href="#DejaVuSans-43d" x="305.859375"/>
      <use xlink:href="#DejaVuSans-43e" x="371.240234"/>
      <use xlink:href="#DejaVuSans-43b" x="432.421875"/>
      <use xlink:href="#DejaVuSans-43e" x="496.337891"/>
      <use xlink:href="#DejaVuSans-433" x="557.519531"/>
      <use xlink:href="#DejaVuSans-456" x="610.058594"/>
      <use xlink:href="#DejaVuSans-447" x="637.841797"/>
      <use xlink:href="#DejaVuSans-43d" x="696.923828"/>
      <use xlink:href="#DejaVuSans-456" x="762.304688"/>
      <use xlink:href="#DejaVuSans-441" x="790.087891"/>
      <use xlink:href="#DejaVuSans-442" x="845.068359"/>
      <use xlink:href="#DejaVuSans-44c" x="903.320312"/>
     </g>
    </g>
   </g>
  </g>
 </g>
 <defs>
  <clipPath id="p35be869fd2">
   <rect x="57.6" y="41.472" width="357.12" height="266.112"/>
  </clipPath>
 </defs>
</svg>
7.12" height="266.112"/>
  </clipPath>
 </defs>
</svg>
515.380859"/>
      <use xlink:href="#DejaVuSans-43d" x="574.462891"/>
      <use xlink:href="#DejaVuSans-456" x="639.84375"/>
      <use xlink:href="#DejaVuSans-441" x="667.626953"/>
      <use xlink:href="#DejaVuSans-442" x="722.607422"/>
      <use xlink:href="#DejaVuSans-44c" x="780.859375"/>
     </g>
    </g>
   </g>
   <g id="text_8">
    <g clip-path="url(#p211888f251)">
     <!-- універсальність -->
     <g transform="translate(46.552252 114.109592)scale(0.1 -0.1)">
      <use xlink:href="#DejaVuSans-443"/>
      <use xlink:href="#DejaVuSans-43d" x="59.179688"/>
      <use xlink:href="#DejaVuSans-456" x="124.560547"/>
      <use xlink:href="#DejaVuSans-432" x="152.34375"/>
      <use xlink:href="#DejaVuSans-435" x="211.279297"/>
      <use xlink:href="#DejaVuSans-440" x="272.802734"/>
      <use xlink:href="#DejaVuSans-441" x="336.279297"/>
      <use xlink:href="#DejaVuSans-430" x="391.259766"/>
      <use xlink:href="#DejaVuSans-43b" x="452.539062"/>
      <use xlink:href="#DejaVuSans-44c" x="516.455078"/>
      <use xlink:href="#DejaVuSans-43d" x="575.390625"/>
      <use xlink:href="#DejaVuSans-456" x="640.771484"/>
      <use xlink:href="#DejaVuSans-441" x="668.554688"/>
      <use xlink:href="#DejaVuSans-442" x="723.535156"/>
      <use xlink:href="#DejaVuSans-44c" x="781.787109"/>
     </g>
    </g>
   </g>
   <g id="text_9">
    <g clip-path="url(#p211888f251)">
     <!-- нетехнологічність -->
     <g transform="translate(287.369582 56.327375)scale(0.1 -0.1)">
      <defs>
       <path id="DejaVuSans-445" d="M 3513 3500 
L 2247 1797 
L 3578 0 
L 2900 0 
L 1881 1375 
L 863 0 
L 184 0 
L 1544 1831 
L 300 3500 
L 978 3500 
L 1906 2253 
L 2834 3500 
L 3513 3500 
z
" transform="scale(0.015625)"/>
       <path id="DejaVuSans-433" d="M 581 0 
L 581 3500 
L 3050 3500 
L 3050 3041 
L 1159 3041 
L 1159 0 
L 581 0 
z
" transform="scale(0.015625)"/>
      </defs>
      <use xlink:href="#DejaVuSans-43d"/>
      <use xlink:href="#DejaVuSans-435" x="65.380859"/>
      <use xlink:href="#DejaVuSans-442" x="126.904297"/>
      <use xlink:href="#DejaVuSans-435" x="185.15625"/>
      <use xlink:href="#DejaVuSans-445" x="246.679688"/>
      <use xlink:href="#DejaVuSans-43d" x="305.859375"/>
      <use xlink:href="#DejaVuSans-43e" x="371.240234"/>
      <use xlink:href="#DejaVuSans-43b" x="432.421875"/>
      <use xlink:href="#DejaVuSans-43e" x="496.337891"/>
      <use xlink:href="#DejaVuSans-433" x="557.519531"/>
      <use xlink:href="#DejaVuSans-456" x="610.058594"/>
      <use xlink:href="#DejaVuSans-447" x="637.841797"/>
      <use xlink:href="#DejaVuSans-43d" x="696.923828"/>
      <use xlink:href="#DejaVuSans-456" x="762.304688"/>
      <use xlink:href="#DejaVuSans-441" x="790.087891"/>
      <use xlink:href="#DejaVuSans-442" x="845.068359"/>
      <use xlink:href="#DejaVuSans-44c" x="903.320312"/>
     </g>
    </g>
   </g>
  </g>
 </g>
 <defs>
  <clipPath id="p211888f251">
   <rect x="57.6" y="41.472" width="357.12" height="266.112"/>
  </clipPath>
 </defs>
</svg>
